<?xml version="1.0" encoding="utf-8"?>
<!-- Generator: Adobe Illustrator 26.0.1, SVG Export Plug-In . SVG Version: 6.00 Build 0)  -->
<svg version="1.1" id="Layer_1" xmlns="http://www.w3.org/2000/svg" xmlns:xlink="http://www.w3.org/1999/xlink" x="0px" y="0px"
	 viewBox="0 0 1000 1000" style="enable-background:new 0 0 1000 1000;" xml:space="preserve">
<style type="text/css">
	.st0{opacity:0.19;}
	.st1{fill:#ED1C24;}
	.st2{fill:#FFFFFF;}
	.st3{fill:#162E54;}
	.st4{fill:#8C1D3C;}
	.st5{fill:#BCBEC0;}
</style>
<rect class="st3" width="1000" height="1000"/>
<g>
	<path class="st2" d="M270.08,520.53c-22.71-8.98-42.55,2.21-48.3-6.8c-1.19-1.86-1.97-4.9-0.83-7.23c1-2.04,3.25-3.05,5.44-3.54
		c18.79,2.54,39.98-3.79,48.4-18.21c7.58-12.99,2.68-28.93,0.59-34.7c4.21,0.29,16-4.44,16-4.44l-0.29-15.42
		c-12.41,1.92-22.46,1.89-29.38,1.5c-8.08-0.45-13.65-1.5-29.12-2.26c-7.41-0.37-15.02-0.57-23.11,3.51c0,0-3.52,1.73-6.25,4.05
		c-14.06,11.9-15.14,36-6.1,49.78c3.01,4.58,7.26,8.2,12.28,10.89c-9.61,3.3-15.42,11.99-14.48,20.15
		c0.98,8.49,8.91,13.11,9.89,13.66c-0.78,0.2-17.21,4.64-21.11,19.26c-2.81,10.52,2.72,19.37,4.15,21.5
		c10.33,15.33,33.16,15.06,43.89,14.94c10.08-0.12,44.48-0.84,55.06-24.44c3.78-8.43,5.54-21.25-0.71-30.85
		C281.74,525.25,275.18,522.55,270.08,520.53z M223.48,452c2.95-3.39,7.32-4.94,11.76-4.94c3.95,0,8.46,0.78,11.29,3.55
		c3.64,3.55,5.06,9.79,5.06,15.8c0,10.69-7.32,19.35-16.35,19.35c-4.14,0-8.08-1.28-10.96-4.28c-3.4-3.55-5.39-9.28-5.39-15.07
		C218.88,460.97,220.43,455.51,223.48,452z M236.62,567.4c-7.59,0.23-15.36,0.18-20.47-1.99c-5.27-2.25-7.77-6.66-7.88-10.38
		c-0.1-3.24,1.14-6.89,5.16-9.32c5.04-3.04,13.79-4.5,22.38-4.77c8.35-0.26,17.73,0.62,22.94,3.21c4.41,2.2,5.89,4.74,6,8.1
		C264.97,559.55,252.06,566.92,236.62,567.4z"/>
	<path class="st2" d="M387.61,492.29c0.7-5.43,1.16-13.77-0.95-23.54c-1.16-5.33-3.82-17.62-12.25-26.56
		c-16.23-17.23-50.5-18.44-69.34-1.67c-8.47,7.53-11.47,16.56-13.69,23.26c-1.15,3.46-11.47,36.23,8.05,58.65
		c7.77,8.92,16.99,12.46,22.78,14.6c25.99,9.62,50.34,0.38,58.51-3.15c-0.16-7.4-0.31-14.79-0.47-22.19
		c-7.07,3.73-18.61,8.3-32.76,7.47c-8-0.47-17.59-1.03-24.12-8.53c-5.79-6.65-5.96-15.07-5.84-18.33H387.61z M341.28,450.17
		c10.46,0.98,19.22,10.47,19.23,22.11h-42.59C318.06,459.03,329.48,449.06,341.28,450.17z"/>
	<path class="st2" d="M604.84,492.29c0.71-5.43,1.17-13.77-0.95-23.54c-1.15-5.33-3.82-17.62-12.25-26.56
		c-16.23-17.23-50.5-18.44-69.34-1.67c-8.47,7.53-11.47,16.56-13.69,23.26c-1.15,3.46-11.47,36.23,8.05,58.65
		c7.77,8.92,17,12.46,22.78,14.6c26,9.62,50.35,0.38,58.51-3.15c-0.16-7.4-0.31-14.79-0.47-22.19c-7.07,3.73-18.61,8.3-32.76,7.47
		c-8-0.47-17.59-1.03-24.12-8.53c-5.79-6.65-5.95-15.07-5.84-18.33H604.84z M558.51,450.17c10.46,0.98,19.22,10.47,19.23,22.11
		h-42.59C535.3,459.03,546.71,449.06,558.51,450.17z"/>
	<path class="st2" d="M395.86,430.55v108.38h30.37c0-20,0-40.01,0-60.01c0.08-4.15,1.54-16.41,10.59-23.14
		c3.44-2.56,11.84-4.7,18.69-2.49c6.23,2.01,10.65,9.19,10.9,17.91c0,22.58,0,45.16,0,67.74h28.5l0.34-74.82
		c0.01-2.53-0.29-5.05-0.91-7.5c-1.58-6.18-5.43-16.01-14.45-22.22c-15.23-10.5-40.12-6.82-57.54,11.73
		c-1.71-5.19-3.43-10.38-5.14-15.57H395.86z"/>
	<path class="st2" d="M678.34,459.36l8.41-21.49c-32.89-15.6-64.24-10.87-75.15,5.72c-4.27,6.5-7.07,17.35-3.37,26.98
		c9.08,23.62,51.48,24.68,51.15,39.46c-0.05,2.2-1.02,3.75-1.4,4.33c-8.09,12.56-46.3-0.42-50.45-1.87v21.96
		c0,0,25.03,10.86,48.86,5.41c1.88-0.12,19.29-1.54,27.64-15.69c6.51-11.03,4.77-25.16-1.28-34.45
		c-12.94-19.85-44.82-16.45-46.44-29.74c-0.04-0.37-0.39-3.57,1.56-6.07C645.39,444.2,676.64,458.56,678.34,459.36z"/>
	<path class="st2" d="M807.27,459.36l8.41-21.49c-32.89-15.6-64.24-10.87-75.15,5.72c-4.27,6.5-7.07,17.35-3.37,26.98
		c9.08,23.62,51.48,24.68,51.15,39.46c-0.05,2.2-1.02,3.75-1.4,4.33c-8.09,12.56-46.3-0.42-50.45-1.87v21.96
		c0,0,25.03,10.86,48.86,5.41c1.88-0.12,19.29-1.54,27.64-15.69c6.51-11.03,4.77-25.16-1.28-34.45
		c-12.94-19.85-44.82-16.45-46.44-29.74c-0.04-0.37-0.39-3.57,1.56-6.07C774.32,444.2,805.58,458.56,807.27,459.36z"/>
	<rect x="696.62" y="430.16" class="st5" width="30.37" height="108.97"/>
	<ellipse class="st5" cx="711.31" cy="403.1" rx="16.62" ry="15.14"/>
	<path class="st2" d="M539.66,576.74v1.66c2.03,0.16,3.5,0.5,4.42,1.03c0.93,0.53,1.38,1.31,1.38,2.33c0,0.58-0.11,1.27-0.32,2.05
		c-0.21,0.79-0.5,1.61-0.87,2.45l-7.95,17.83l-8.58-20.64c-0.24-0.55-0.42-1.07-0.55-1.55c-0.13-0.47-0.2-0.88-0.2-1.22
		c0.03-0.74,0.38-1.27,1.05-1.58c0.67-0.32,1.99-0.54,3.97-0.67v-1.7h-17.47v1.7c1.9,0.16,3.39,0.7,4.48,1.62
		c1.1,0.92,2.3,2.94,3.62,6.05l10.91,25.5l2.53-0.23l10.2-23.49c1.64-3.74,3-6.18,4.09-7.31c1.09-1.13,2.46-1.84,4.09-2.14v-1.7
		H539.66z"/>
	<path class="st2" d="M583.93,606.19c-1.74,0.87-3.51,1.31-5.3,1.31c-3.75,0-6.78-1.44-9.12-4.33c-2.33-2.88-3.5-6.68-3.5-11.37
		c0-0.58,0.02-1.15,0.06-1.72c0.04-0.57,0.1-1.15,0.18-1.76h24.63l-0.04-1.58l-0.08-0.16c-4.09-7.33-8.75-10.99-14-10.99
		c-4.77,0-8.7,1.73-11.78,5.2c-3.09,3.47-4.63,7.91-4.63,13.34c0,5.17,1.42,9.43,4.27,12.79c2.85,3.36,6.45,5.04,10.79,5.04
		c2.64,0,5.15-0.72,7.53-2.15s4.75-3.67,7.1-6.7l-0.79-0.95C587.45,603.98,585.67,605.32,583.93,606.19z M569.68,580.02
		c1.49-1.55,3.32-2.33,5.48-2.33c2.21,0,4.07,0.8,5.58,2.41c1.5,1.6,2.43,3.78,2.76,6.52h-16.84
		C567.18,583.78,568.19,581.57,569.68,580.02z"/>
	<path class="st2" d="M625.21,593.07l-0.16,5.81c-0.16,4.24-0.63,7.01-1.43,8.3c-0.79,1.29-2.21,1.93-4.27,1.93h-0.39v1.7h18.38
		l-0.04-1.7c-2.4-0.02-4.03-0.35-4.91-0.99c-0.87-0.63-1.3-1.95-1.3-3.96c0-0.63,0.04-1.78,0.12-3.44c0.02-0.47,0.04-0.84,0.04-1.1
		l0.32-6.76c0.05-0.55,0.09-1.11,0.1-1.68c0.01-0.56,0.02-1.39,0.02-2.47c0-4.98-0.68-8.47-2.05-10.46
		c-1.37-1.99-3.69-2.98-6.96-2.98c-1.82,0-3.91,0.47-6.27,1.42c-2.36,0.95-5.26,2.5-8.72,4.67v-6.64h-0.55l-10.83,3.4v1.55
		c2.14,0.55,3.52,1.12,4.15,1.7c0.63,0.58,0.95,1.51,0.95,2.81v19.85c0,1.98-0.36,3.31-1.09,3.99c-0.73,0.68-2.06,1.05-4.02,1.1v1.7
		h16.49v-1.7c-1.98-0.05-3.32-0.42-4.03-1.1c-0.72-0.69-1.07-2.02-1.07-3.99v-20.48c2.71-1.71,4.96-2.95,6.74-3.72
		c1.78-0.76,3.29-1.15,4.53-1.15c2.32,0,3.95,0.81,4.9,2.43c0.95,1.62,1.42,4.62,1.42,8.99c0,0.32-0.01,0.81-0.04,1.46
		C625.22,592.22,625.21,592.72,625.21,593.07z"/>
	<path class="st2" d="M662.14,603.19c-1.13,1.24-2.22,2.17-3.26,2.81c-1.04,0.63-1.99,0.95-2.83,0.95c-1.45,0-2.46-0.57-3.03-1.7
		c-0.56-1.13-0.85-3.73-0.85-7.79v-16.76h10.28v-3.95h-10.28v-8.66h-1.62c-0.77,2.87-1.97,5.21-3.62,7.02
		c-1.65,1.81-3.65,3-6.03,3.58v2.02h4.79v16.45c0,5.12,0.69,8.84,2.08,11.17c1.38,2.33,3.58,3.5,6.58,3.5
		c1.61,0,3.18-0.61,4.71-1.82c1.53-1.21,2.95-2.97,4.27-5.26L662.14,603.19z"/>
	<path class="st2" d="M706.42,606.71c-2.16-0.61-3.53-1.17-4.09-1.7c-0.57-0.53-0.85-1.48-0.85-2.85v-27.44h-0.63l-12.81,3.4
		l0.04,1.55c2.98,0.29,4.9,0.72,5.75,1.3c0.86,0.58,1.28,1.65,1.28,3.2v19.61c-2.69,1.71-4.92,2.95-6.7,3.72
		c-1.78,0.76-3.3,1.15-4.57,1.15c-2.34,0-3.97-0.74-4.88-2.21c-0.91-1.48-1.36-4.82-1.36-10.05v-21.66h-0.55l-10.83,3.4v1.55
		c2.14,0.55,3.52,1.12,4.15,1.7c0.63,0.58,0.95,1.51,0.95,2.81v13.6c0,5.46,0.65,9.2,1.96,11.23c1.3,2.03,3.56,3.04,6.78,3.04
		c1.82,0,3.92-0.48,6.32-1.44c2.4-0.96,5.31-2.51,8.74-4.65v6.09h0.63l10.76-3.91L706.42,606.71z"/>
	<path class="st2" d="M733.88,576.7c-1.75-0.63-2.98-0.95-3.7-0.95c-0.98,0-2.05,0.77-3.24,2.29c-0.32,0.42-0.57,0.74-0.75,0.95
		l-3.4,4.23v-8.5h-0.55l-10.83,3.4v1.55c2.14,0.55,3.52,1.12,4.15,1.7c0.63,0.58,0.95,1.51,0.95,2.81v19.85
		c0,1.98-0.36,3.31-1.09,3.99c-0.72,0.68-2.06,1.05-4.01,1.1v1.7h16.49v-1.7c-1.93-0.02-3.26-0.39-3.99-1.09
		c-0.74-0.7-1.11-2.04-1.11-4.01v-18.23l2.06-2.41c0.95-1.13,1.66-1.85,2.13-2.15c0.48-0.3,1-0.45,1.58-0.45
		c0.79,0,2,0.36,3.64,1.09c1.63,0.73,2.9,1.09,3.8,1.09h0.16l2.17-5.22C737.12,577.67,735.63,577.33,733.88,576.7z"/>
	<path class="st2" d="M764.86,606.19c-1.74,0.87-3.51,1.31-5.3,1.31c-3.74,0-6.78-1.44-9.12-4.33c-2.33-2.88-3.5-6.68-3.5-11.37
		c0-0.58,0.02-1.15,0.06-1.72c0.04-0.57,0.1-1.15,0.18-1.76h24.63l-0.04-1.58l-0.08-0.16c-4.09-7.33-8.75-10.99-13.99-10.99
		c-4.77,0-8.7,1.73-11.78,5.2c-3.09,3.47-4.63,7.91-4.63,13.34c0,5.17,1.43,9.43,4.27,12.79c2.85,3.36,6.45,5.04,10.8,5.04
		c2.63,0,5.14-0.72,7.53-2.15c2.39-1.44,4.75-3.67,7.1-6.7l-0.79-0.95C768.38,603.98,766.6,605.32,764.86,606.19z M750.61,580.02
		c1.49-1.55,3.31-2.33,5.47-2.33c2.21,0,4.07,0.8,5.58,2.41c1.5,1.6,2.43,3.78,2.77,6.52h-16.85
		C748.11,583.78,749.12,581.57,750.61,580.02z"/>
	<path class="st2" d="M788.66,589.31c-0.63-0.29-1.13-0.51-1.5-0.67c-1.16-0.53-2.11-1.31-2.85-2.35c-0.74-1.04-1.1-2.11-1.1-3.22
		c0-1.58,0.57-2.87,1.72-3.87c1.15-1,2.65-1.5,4.53-1.5c2.19,0,3.98,0.6,5.38,1.8c1.4,1.2,2.38,2.98,2.97,5.36h1.46v-7.39
		c-1.53-0.63-3-1.1-4.43-1.4c-1.42-0.3-2.85-0.45-4.27-0.45c-3.64,0-6.63,0.88-8.95,2.65c-2.33,1.77-3.5,3.99-3.5,6.68
		c0,1.87,0.51,3.53,1.54,4.96c1.03,1.44,2.67,2.77,4.94,4.01c1.03,0.58,2.46,1.32,4.31,2.21c4.74,2.38,7.12,4.68,7.12,6.92
		c0,1.87-0.68,3.39-2.04,4.57c-1.36,1.17-3.12,1.76-5.28,1.76c-2.27,0-4.21-0.68-5.83-2.04c-1.62-1.36-2.77-3.26-3.46-5.71h-1.62
		l0.87,9.92l1.55-0.08c0.18-0.39,0.38-0.69,0.59-0.89c0.21-0.2,0.45-0.3,0.71-0.3c0.11,0,1.12,0.2,3.04,0.6
		c1.93,0.39,3.74,0.59,5.46,0.59c3.24,0,5.92-0.97,8.03-2.91c2.11-1.93,3.16-4.39,3.16-7.37
		C801.2,597.11,797.02,593.16,788.66,589.31z"/>
</g>
</svg>
